<svg xmlns="http://www.w3.org/2000/svg" xmlns:xlink="http://www.w3.org/1999/xlink" width="2000" zoomAndPan="magnify" viewBox="0 0 1500 498.749982" height="665" preserveAspectRatio="xMidYMid meet" version="1.0"><defs><g/><clipPath id="54f3f6186e"><path d="M 0.375 0 L 1499.625 0 L 1499.625 498.5 L 0.375 498.5 Z M 0.375 0 " clip-rule="nonzero"/></clipPath><clipPath id="906f9e5a89"><path d="M 0.375 126 L 283 126 L 283 423 L 0.375 423 Z M 0.375 126 " clip-rule="nonzero"/></clipPath><clipPath id="dbfb62c4cf"><rect x="0" width="1500" y="0" height="499"/></clipPath></defs><g clip-path="url(#54f3f6186e)"><g transform="matrix(1, 0, 0, 1, 0, 0)"><g clip-path="url(#dbfb62c4cf)"><g clip-path="url(#906f9e5a89)"><g fill="#6b9080" fill-opacity="1"><g transform="translate(0.375778, 421.247931)"><g><path d="M 281.9375 -294.40625 L 281.9375 -286.09375 C 275.832031 -283.875 269.382812 -279.019531 262.59375 -271.53125 C 255.800781 -264.050781 249.492188 -252.410156 243.671875 -236.609375 L 155.9375 0.828125 C 153.71875 0.554688 151.359375 0.421875 148.859375 0.421875 C 146.367188 0.421875 143.875 0.421875 141.375 0.421875 C 139.164062 0.421875 136.8125 0.421875 134.3125 0.421875 C 131.8125 0.421875 129.457031 0.554688 127.25 0.828125 L 21.203125 -259.484375 C 17.328125 -269.460938 13.03125 -276.320312 8.3125 -280.0625 C 3.601562 -283.800781 -0.828125 -285.8125 -4.984375 -286.09375 L -4.984375 -294.40625 C 3.328125 -294.125 13.097656 -293.84375 24.328125 -293.5625 C 35.554688 -293.289062 46.851562 -293.15625 58.21875 -293.15625 C 70.96875 -293.15625 82.957031 -293.289062 94.1875 -293.5625 C 105.414062 -293.84375 114.492188 -294.125 121.421875 -294.40625 L 121.421875 -286.09375 C 112.546875 -285.8125 105.613281 -284.769531 100.625 -282.96875 C 95.632812 -281.164062 92.863281 -277.835938 92.3125 -272.984375 C 91.757812 -268.140625 93.421875 -260.863281 97.296875 -251.15625 L 172.984375 -58.625 L 164.25 -48.234375 L 221.640625 -202.921875 C 229.117188 -223.710938 233 -240.066406 233.28125 -251.984375 C 233.5625 -263.910156 230.648438 -272.503906 224.546875 -277.765625 C 218.453125 -283.035156 209.71875 -285.8125 198.34375 -286.09375 L 198.34375 -294.40625 C 207.769531 -294.125 216.640625 -293.84375 224.953125 -293.5625 C 233.273438 -293.289062 241.734375 -293.15625 250.328125 -293.15625 C 256.429688 -293.15625 262.179688 -293.289062 267.578125 -293.5625 C 272.984375 -293.84375 277.769531 -294.125 281.9375 -294.40625 Z M 281.9375 -294.40625 "/></g></g></g></g><g fill="#6b9080" fill-opacity="1"><g transform="translate(250.699232, 421.247931)"><g><path d="M 117.265625 -220.8125 C 141.660156 -220.8125 160.785156 -213.601562 174.640625 -199.1875 C 188.503906 -184.769531 195.4375 -161.203125 195.4375 -128.484375 L 58.625 -128.484375 L 57.796875 -136.390625 L 143.046875 -136.390625 C 143.316406 -149.972656 142.484375 -162.515625 140.546875 -174.015625 C 138.609375 -185.523438 135.5625 -194.742188 131.40625 -201.671875 C 127.25 -208.609375 121.703125 -212.078125 114.765625 -212.078125 C 105.066406 -212.078125 96.820312 -205.976562 90.03125 -193.78125 C 83.238281 -181.582031 79.148438 -161.34375 77.765625 -133.0625 L 79 -130.5625 C 78.726562 -127.238281 78.519531 -123.773438 78.375 -120.171875 C 78.238281 -116.566406 78.171875 -112.828125 78.171875 -108.953125 C 78.171875 -89.816406 80.875 -74.289062 86.28125 -62.375 C 91.6875 -50.457031 98.546875 -41.796875 106.859375 -36.390625 C 115.179688 -30.984375 123.640625 -28.28125 132.234375 -28.28125 C 138.054688 -28.28125 144.082031 -29.179688 150.3125 -30.984375 C 156.550781 -32.785156 162.859375 -36.109375 169.234375 -40.953125 C 175.617188 -45.804688 181.582031 -52.671875 187.125 -61.546875 L 194.609375 -59.046875 C 191.285156 -48.515625 186.019531 -38.257812 178.8125 -28.28125 C 171.601562 -18.300781 162.453125 -10.117188 151.359375 -3.734375 C 140.273438 2.640625 126.96875 5.828125 111.4375 5.828125 C 92.59375 5.828125 75.960938 1.804688 61.546875 -6.234375 C 47.128906 -14.273438 35.832031 -26.472656 27.65625 -42.828125 C 19.476562 -59.179688 15.390625 -79.972656 15.390625 -105.203125 C 15.390625 -130.984375 19.753906 -152.46875 28.484375 -169.65625 C 37.210938 -186.84375 49.269531 -199.664062 64.65625 -208.125 C 80.039062 -216.582031 97.578125 -220.8125 117.265625 -220.8125 Z M 117.265625 -220.8125 "/></g></g></g><g fill="#6b9080" fill-opacity="1"><g transform="translate(457.777515, 421.247931)"><g><path d="M 164.671875 -220.8125 C 176.304688 -220.8125 185.796875 -219.351562 193.140625 -216.4375 C 200.492188 -213.53125 206.25 -209.582031 210.40625 -204.59375 C 214.84375 -199.320312 218.097656 -192.523438 220.171875 -184.203125 C 222.253906 -175.890625 223.296875 -164.664062 223.296875 -150.53125 L 223.296875 -38.671875 C 223.296875 -27.023438 225.304688 -19.125 229.328125 -14.96875 C 233.347656 -10.8125 240.207031 -8.734375 249.90625 -8.734375 L 249.90625 0 C 244.644531 -0.28125 236.742188 -0.625 226.203125 -1.03125 C 215.671875 -1.445312 205.28125 -1.65625 195.03125 -1.65625 C 184.488281 -1.65625 174.15625 -1.445312 164.03125 -1.03125 C 153.914062 -0.625 146.226562 -0.28125 140.96875 0 L 140.96875 -8.734375 C 149.28125 -8.734375 155.097656 -10.8125 158.421875 -14.96875 C 161.753906 -19.125 163.421875 -27.023438 163.421875 -38.671875 L 163.421875 -168 C 163.421875 -174.925781 162.726562 -180.953125 161.34375 -186.078125 C 159.957031 -191.210938 157.460938 -195.234375 153.859375 -198.140625 C 150.253906 -201.054688 144.847656 -202.515625 137.640625 -202.515625 C 130.148438 -202.515625 123.285156 -200.429688 117.046875 -196.265625 C 110.816406 -192.109375 105.828125 -186.359375 102.078125 -179.015625 C 98.335938 -171.671875 96.46875 -163.421875 96.46875 -154.265625 L 96.46875 -38.671875 C 96.46875 -27.023438 98.203125 -19.125 101.671875 -14.96875 C 105.140625 -10.8125 110.890625 -8.734375 118.921875 -8.734375 L 118.921875 0 C 113.929688 -0.28125 106.65625 -0.625 97.09375 -1.03125 C 87.53125 -1.445312 77.617188 -1.65625 67.359375 -1.65625 C 56.828125 -1.65625 46.015625 -1.445312 34.921875 -1.03125 C 23.835938 -0.625 15.523438 -0.28125 9.984375 0 L 9.984375 -8.734375 C 19.679688 -8.734375 26.539062 -10.8125 30.5625 -14.96875 C 34.582031 -19.125 36.59375 -27.023438 36.59375 -38.671875 L 36.59375 -169.65625 C 36.59375 -182.132812 34.71875 -191.351562 30.96875 -197.3125 C 27.226562 -203.269531 20.234375 -206.25 9.984375 -206.25 L 9.984375 -214.984375 C 18.847656 -214.148438 27.441406 -213.734375 35.765625 -213.734375 C 47.398438 -213.734375 58.273438 -214.21875 68.390625 -215.1875 C 78.515625 -216.15625 87.875 -217.613281 96.46875 -219.5625 L 96.46875 -182.125 C 103.40625 -196.269531 112.832031 -206.253906 124.75 -212.078125 C 136.664062 -217.898438 149.972656 -220.8125 164.671875 -220.8125 Z M 164.671875 -220.8125 "/></g></g></g><g fill="#6b9080" fill-opacity="1"><g transform="translate(713.090894, 421.247931)"><g><path d="M 92.3125 -220.8125 C 103.957031 -220.8125 114.144531 -219.351562 122.875 -216.4375 C 131.601562 -213.53125 137.910156 -210.691406 141.796875 -207.921875 C 151.222656 -201.535156 157.046875 -205.691406 159.265625 -220.390625 L 168 -220.390625 C 167.4375 -212.628906 167.015625 -203.132812 166.734375 -191.90625 C 166.460938 -180.675781 166.328125 -165.773438 166.328125 -147.203125 L 157.59375 -147.203125 C 156.207031 -157.460938 153.570312 -167.582031 149.6875 -177.5625 C 145.8125 -187.539062 140.203125 -195.71875 132.859375 -202.09375 C 125.515625 -208.46875 116.019531 -211.65625 104.375 -211.65625 C 96.332031 -211.65625 89.539062 -209.367188 84 -204.796875 C 78.457031 -200.222656 75.6875 -193.640625 75.6875 -185.046875 C 75.6875 -176.722656 78.179688 -169.441406 83.171875 -163.203125 C 88.160156 -156.972656 94.601562 -151.015625 102.5 -145.328125 C 110.40625 -139.648438 118.65625 -133.625 127.25 -127.25 C 136.394531 -120.3125 144.707031 -113.445312 152.1875 -106.65625 C 159.675781 -99.863281 165.640625 -92.445312 170.078125 -84.40625 C 174.515625 -76.375 176.734375 -66.8125 176.734375 -55.71875 C 176.734375 -43.25 173.128906 -32.367188 165.921875 -23.078125 C 158.710938 -13.785156 149.21875 -6.644531 137.4375 -1.65625 C 125.65625 3.332031 112.554688 5.828125 98.140625 5.828125 C 89.816406 5.828125 82.394531 4.992188 75.875 3.328125 C 69.363281 1.660156 63.753906 -0.414062 59.046875 -2.90625 C 55.441406 -4.570312 52.046875 -6.164062 48.859375 -7.6875 C 45.671875 -9.21875 42.691406 -10.535156 39.921875 -11.640625 C 37.148438 -12.472656 34.722656 -11.503906 32.640625 -8.734375 C 30.566406 -5.960938 28.972656 -2.082031 27.859375 2.90625 L 19.125 2.90625 C 19.675781 -5.957031 20.09375 -16.765625 20.375 -29.515625 C 20.65625 -42.273438 20.796875 -59.1875 20.796875 -80.25 L 29.53125 -80.25 C 31.1875 -65.28125 34.234375 -52.039062 38.671875 -40.53125 C 43.109375 -29.03125 49.140625 -20.023438 56.765625 -13.515625 C 64.390625 -7.003906 74.019531 -3.75 85.65625 -3.75 C 90.375 -3.75 94.945312 -4.71875 99.375 -6.65625 C 103.8125 -8.59375 107.484375 -11.78125 110.390625 -16.21875 C 113.304688 -20.65625 114.765625 -26.335938 114.765625 -33.265625 C 114.765625 -45.460938 110.8125 -55.582031 102.90625 -63.625 C 95.007812 -71.664062 84.960938 -80.394531 72.765625 -89.8125 C 63.898438 -97.019531 55.515625 -104.160156 47.609375 -111.234375 C 39.710938 -118.304688 33.269531 -126.066406 28.28125 -134.515625 C 23.289062 -142.972656 20.796875 -152.609375 20.796875 -163.421875 C 20.796875 -175.890625 24.117188 -186.421875 30.765625 -195.015625 C 37.421875 -203.617188 46.222656 -210.066406 57.171875 -214.359375 C 68.128906 -218.660156 79.84375 -220.8125 92.3125 -220.8125 Z M 92.3125 -220.8125 "/></g></g></g><g fill="#6b9080" fill-opacity="1"><g transform="translate(905.199645, 421.247931)"><g><path d="M 67.359375 2.90625 C 54.890625 2.90625 44.492188 0.550781 36.171875 -4.15625 C 27.859375 -8.875 21.757812 -15.179688 17.875 -23.078125 C 14 -30.972656 12.0625 -39.632812 12.0625 -49.0625 C 12.0625 -60.988281 14.765625 -70.691406 20.171875 -78.171875 C 25.578125 -85.660156 32.578125 -91.757812 41.171875 -96.46875 C 49.765625 -101.1875 58.84375 -105.066406 68.40625 -108.109375 C 77.96875 -111.160156 87.113281 -114.140625 95.84375 -117.046875 C 104.582031 -119.960938 111.65625 -123.429688 117.0625 -127.453125 C 122.46875 -131.472656 125.171875 -136.671875 125.171875 -143.046875 L 125.171875 -175.484375 C 125.171875 -182.691406 123.988281 -189.132812 121.625 -194.8125 C 119.269531 -200.5 115.664062 -204.863281 110.8125 -207.90625 C 105.96875 -210.957031 99.660156 -212.484375 91.890625 -212.484375 C 86.347656 -212.484375 80.804688 -211.722656 75.265625 -210.203125 C 69.722656 -208.679688 65.148438 -206.117188 61.546875 -202.515625 C 69.304688 -199.734375 75.332031 -195.5 79.625 -189.8125 C 83.925781 -184.132812 86.078125 -177.691406 86.078125 -170.484375 C 86.078125 -161.054688 82.816406 -153.570312 76.296875 -148.03125 C 69.785156 -142.488281 62.09375 -139.71875 53.21875 -139.71875 C 43.238281 -139.71875 35.6875 -142.835938 30.5625 -149.078125 C 25.4375 -155.316406 22.875 -162.867188 22.875 -171.734375 C 22.875 -179.773438 24.878906 -186.425781 28.890625 -191.6875 C 32.910156 -196.957031 38.523438 -201.953125 45.734375 -206.671875 C 53.503906 -211.097656 62.863281 -214.5625 73.8125 -217.0625 C 84.757812 -219.5625 96.609375 -220.8125 109.359375 -220.8125 C 122.109375 -220.8125 133.613281 -219.492188 143.875 -216.859375 C 154.132812 -214.222656 162.726562 -209.441406 169.65625 -202.515625 C 176.03125 -196.128906 180.1875 -188.289062 182.125 -179 C 184.070312 -169.71875 185.046875 -158.007812 185.046875 -143.875 L 185.046875 -30.765625 C 185.046875 -23.835938 185.738281 -19.054688 187.125 -16.421875 C 188.507812 -13.785156 190.863281 -12.46875 194.1875 -12.46875 C 196.6875 -12.46875 199.113281 -13.160156 201.46875 -14.546875 C 203.820312 -15.941406 206.382812 -17.609375 209.15625 -19.546875 L 213.3125 -12.46875 C 207.5 -7.476562 200.78125 -3.664062 193.15625 -1.03125 C 185.53125 1.59375 177.003906 2.90625 167.578125 2.90625 C 157.316406 2.90625 149.132812 1.453125 143.03125 -1.453125 C 136.9375 -4.367188 132.570312 -8.320312 129.9375 -13.3125 C 127.3125 -18.300781 126 -24.117188 126 -30.765625 C 119.34375 -20.234375 111.300781 -11.988281 101.875 -6.03125 C 92.445312 -0.0703125 80.941406 2.90625 67.359375 2.90625 Z M 96.890625 -23.703125 C 102.429688 -23.703125 107.488281 -25.019531 112.0625 -27.65625 C 116.632812 -30.289062 121.003906 -34.65625 125.171875 -40.75 L 125.171875 -126 C 122.671875 -121.84375 119.203125 -118.097656 114.765625 -114.765625 C 110.328125 -111.441406 105.613281 -108.046875 100.625 -104.578125 C 95.632812 -101.117188 90.851562 -97.304688 86.28125 -93.140625 C 81.707031 -88.984375 78.035156 -83.851562 75.265625 -77.75 C 72.492188 -71.65625 71.109375 -64.3125 71.109375 -55.71875 C 71.109375 -44.90625 73.460938 -36.863281 78.171875 -31.59375 C 82.890625 -26.332031 89.128906 -23.703125 96.890625 -23.703125 Z M 96.890625 -23.703125 "/></g></g></g><g fill="#6b9080" fill-opacity="1"><g transform="translate(1120.594308, 421.247931)"><g><path d="M 94.390625 -283.171875 L 94.390625 -214.984375 L 143.453125 -214.984375 L 143.453125 -206.671875 L 94.390625 -206.671875 L 94.390625 -38.671875 C 94.390625 -30.359375 95.914062 -24.46875 98.96875 -21 C 102.019531 -17.53125 106.59375 -15.796875 112.6875 -15.796875 C 117.675781 -15.796875 122.664062 -17.664062 127.65625 -21.40625 C 132.644531 -25.15625 137.082031 -31.601562 140.96875 -40.75 L 148.03125 -37.015625 C 143.59375 -24.535156 136.867188 -14.273438 127.859375 -6.234375 C 118.859375 1.804688 106.59375 5.828125 91.0625 5.828125 C 81.914062 5.828125 73.875 4.644531 66.9375 2.28125 C 60.007812 -0.0703125 54.191406 -3.601562 49.484375 -8.3125 C 43.378906 -14.414062 39.359375 -21.972656 37.421875 -30.984375 C 35.484375 -39.992188 34.515625 -51.703125 34.515625 -66.109375 L 34.515625 -206.671875 L -0.421875 -206.671875 L -0.421875 -214.984375 L 34.515625 -214.984375 L 34.515625 -269.875 C 46.160156 -269.875 56.898438 -270.910156 66.734375 -272.984375 C 76.578125 -275.066406 85.796875 -278.460938 94.390625 -283.171875 Z M 94.390625 -283.171875 "/></g></g></g><g fill="#6b9080" fill-opacity="1"><g transform="translate(1265.299713, 421.247931)"><g><path d="M 117.265625 -220.8125 C 137.503906 -220.8125 155.242188 -217.066406 170.484375 -209.578125 C 185.734375 -202.085938 197.65625 -190.023438 206.25 -173.390625 C 214.84375 -156.765625 219.140625 -134.726562 219.140625 -107.28125 C 219.140625 -79.832031 214.84375 -57.863281 206.25 -41.375 C 197.65625 -24.882812 185.734375 -12.894531 170.484375 -5.40625 C 155.242188 2.082031 137.503906 5.828125 117.265625 5.828125 C 97.578125 5.828125 80.039062 2.082031 64.65625 -5.40625 C 49.269531 -12.894531 37.210938 -24.882812 28.484375 -41.375 C 19.753906 -57.863281 15.390625 -79.832031 15.390625 -107.28125 C 15.390625 -134.726562 19.753906 -156.765625 28.484375 -173.390625 C 37.210938 -190.023438 49.269531 -202.085938 64.65625 -209.578125 C 80.039062 -217.066406 97.578125 -220.8125 117.265625 -220.8125 Z M 117.265625 -212.484375 C 106.171875 -212.484375 96.878906 -204.234375 89.390625 -187.734375 C 81.910156 -171.242188 78.171875 -144.425781 78.171875 -107.28125 C 78.171875 -70.132812 81.910156 -43.382812 89.390625 -27.03125 C 96.878906 -10.675781 106.171875 -2.5 117.265625 -2.5 C 128.628906 -2.5 137.984375 -10.675781 145.328125 -27.03125 C 152.671875 -43.382812 156.34375 -70.132812 156.34375 -107.28125 C 156.34375 -144.425781 152.671875 -171.242188 145.328125 -187.734375 C 137.984375 -204.234375 128.628906 -212.484375 117.265625 -212.484375 Z M 117.265625 -212.484375 "/></g></g></g></g></g></g></svg>