<svg xmlns="http://www.w3.org/2000/svg" xmlns:xlink="http://www.w3.org/1999/xlink" width="2000" zoomAndPan="magnify" viewBox="0 0 1500 1499.999933" height="2000" preserveAspectRatio="xMidYMid meet" version="1.0"><defs><g/><clipPath id="9458902a94"><rect x="0" width="883" y="0" height="1500"/></clipPath><clipPath id="b97f795405"><rect x="0" width="884" y="0" height="1500"/></clipPath></defs><g transform="matrix(1, 0, 0, 1, 337, 0.000000000000112861)"><g clip-path="url(#9458902a94)"><g fill="#6b9080" fill-opacity="1"><g transform="translate(21.706545, 1267.546165)"><g><path d="M 848.328125 -885.859375 L 848.328125 -860.84375 C 829.972656 -854.164062 810.578125 -839.566406 790.140625 -817.046875 C 769.703125 -794.523438 750.726562 -759.488281 733.21875 -711.9375 L 469.203125 2.5 C 462.535156 1.664062 455.445312 1.25 447.9375 1.25 C 440.425781 1.25 432.921875 1.25 425.421875 1.25 C 418.742188 1.25 411.648438 1.25 404.140625 1.25 C 396.628906 1.25 389.539062 1.664062 382.875 2.5 L 63.8125 -780.765625 C 52.132812 -810.785156 39.203125 -831.425781 25.015625 -842.6875 C 10.835938 -853.957031 -2.503906 -860.007812 -15.015625 -860.84375 L -15.015625 -885.859375 C 10.003906 -885.023438 39.40625 -884.191406 73.1875 -883.359375 C 106.976562 -882.523438 140.972656 -882.109375 175.171875 -882.109375 C 213.546875 -882.109375 249.625 -882.523438 283.40625 -883.359375 C 317.1875 -884.191406 344.503906 -885.023438 365.359375 -885.859375 L 365.359375 -860.84375 C 338.660156 -860.007812 317.800781 -856.878906 302.78125 -851.453125 C 287.769531 -846.035156 279.429688 -836.023438 277.765625 -821.421875 C 276.097656 -806.828125 281.101562 -784.929688 292.78125 -755.734375 L 520.5 -176.421875 L 494.234375 -145.140625 L 666.90625 -610.59375 C 689.425781 -673.15625 701.101562 -722.367188 701.9375 -758.234375 C 702.769531 -794.109375 694.007812 -819.96875 675.65625 -835.8125 C 657.300781 -851.664062 631.023438 -860.007812 596.828125 -860.84375 L 596.828125 -885.859375 C 625.191406 -885.023438 651.882812 -884.191406 676.90625 -883.359375 C 701.9375 -882.523438 727.378906 -882.109375 753.234375 -882.109375 C 771.585938 -882.109375 788.894531 -882.523438 805.15625 -883.359375 C 821.425781 -884.191406 835.816406 -885.023438 848.328125 -885.859375 Z M 848.328125 -885.859375 "/></g></g></g></g></g><g transform="matrix(1, 0, 0, 1, 310, 0.000000000000112861)"><g clip-path="url(#b97f795405)"><g fill="#1f2924" fill-opacity="1"><g transform="translate(22.085093, 1267.546165)"><g><path d="M 848.328125 -885.859375 L 848.328125 -860.84375 C 829.972656 -854.164062 810.578125 -839.566406 790.140625 -817.046875 C 769.703125 -794.523438 750.726562 -759.488281 733.21875 -711.9375 L 469.203125 2.5 C 462.535156 1.664062 455.445312 1.25 447.9375 1.25 C 440.425781 1.25 432.921875 1.25 425.421875 1.25 C 418.742188 1.25 411.648438 1.25 404.140625 1.25 C 396.628906 1.25 389.539062 1.664062 382.875 2.5 L 63.8125 -780.765625 C 52.132812 -810.785156 39.203125 -831.425781 25.015625 -842.6875 C 10.835938 -853.957031 -2.503906 -860.007812 -15.015625 -860.84375 L -15.015625 -885.859375 C 10.003906 -885.023438 39.40625 -884.191406 73.1875 -883.359375 C 106.976562 -882.523438 140.972656 -882.109375 175.171875 -882.109375 C 213.546875 -882.109375 249.625 -882.523438 283.40625 -883.359375 C 317.1875 -884.191406 344.503906 -885.023438 365.359375 -885.859375 L 365.359375 -860.84375 C 338.660156 -860.007812 317.800781 -856.878906 302.78125 -851.453125 C 287.769531 -846.035156 279.429688 -836.023438 277.765625 -821.421875 C 276.097656 -806.828125 281.101562 -784.929688 292.78125 -755.734375 L 520.5 -176.421875 L 494.234375 -145.140625 L 666.90625 -610.59375 C 689.425781 -673.15625 701.101562 -722.367188 701.9375 -758.234375 C 702.769531 -794.109375 694.007812 -819.96875 675.65625 -835.8125 C 657.300781 -851.664062 631.023438 -860.007812 596.828125 -860.84375 L 596.828125 -885.859375 C 625.191406 -885.023438 651.882812 -884.191406 676.90625 -883.359375 C 701.9375 -882.523438 727.378906 -882.109375 753.234375 -882.109375 C 771.585938 -882.109375 788.894531 -882.523438 805.15625 -883.359375 C 821.425781 -884.191406 835.816406 -885.023438 848.328125 -885.859375 Z M 848.328125 -885.859375 "/></g></g></g></g></g></svg>